<svg xmlns="http://www.w3.org/2000/svg" viewBox="0 0 64 64" width="64" height="64">
  <title>Voxto · Recording</title>
  <path d="M14 10 H50 a8 8 0 0 1 8 8 v22 a8 8 0 0 1 -8 8 H30 l-9 8 v-8 H14 a8 8 0 0 1 -8 -8 V18 a8 8 0 0 1 8 -8 z" fill="#E5484D"></path>
  <rect x="16" y="18" width="4" height="22" rx="2" fill="#FFFFFF"></rect>
  <rect x="23" y="22" width="4" height="14" rx="2" fill="#FFFFFF"></rect>
  <rect x="30" y="25" width="4" height="8" rx="2" fill="#FFFFFF"></rect>
  <rect x="37" y="22" width="4" height="14" rx="2" fill="#FFFFFF"></rect>
  <rect x="44" y="18" width="4" height="22" rx="2" fill="#FFFFFF"></rect>
</svg>